<?xml version="1.0" encoding="UTF-8" standalone="no"?>
<svg
   version="1.1"
   width="143.99969pt"
   height="100.7997pt"
   id="svg21"
   viewBox="0 0 143.99969 100.7997"
   sodipodi:docname="free-fire-seeklogo.com.cdr"
   xmlns:inkscape="http://www.inkscape.org/namespaces/inkscape"
   xmlns:sodipodi="http://sodipodi.sourceforge.net/DTD/sodipodi-0.dtd"
   xmlns="http://www.w3.org/2000/svg"
   xmlns:svg="http://www.w3.org/2000/svg">
  <defs
     id="defs25" />
  <sodipodi:namedview
     id="namedview23"
     pagecolor="#ffffff"
     bordercolor="#000000"
     borderopacity="0.25"
     inkscape:showpageshadow="2"
     inkscape:pageopacity="0.0"
     inkscape:pagecheckerboard="0"
     inkscape:deskcolor="#d1d1d1"
     inkscape:document-units="pt" />
  <path
     d="M 1e-4,1e-4 V 100.7996 H 143.9996 V 1e-4 Z"
     style="fill:#1b1918;fill-rule:evenodd;stroke:#1b1918;stroke-width:0.5669;stroke-linecap:butt;stroke-linejoin:miter;stroke-dasharray:none"
     id="path2" />
  <g
     id="Layer1000">
    <path
       d="m 27.7885,49.4964 v -6.1435 c 1.5281,0 2.5954,-0.0623 3.8973,0.6801 1.6373,0.9337 1.9639,5.0692 -1.9763,5.3368 -0.7308,0.0495 -1.2518,0.1266 -1.921,0.1266 z M 21.163,38.6548 v 24.5741 l 0.6004,0.0094 0.002,-1.5753 h 0.4819 v -0.6023 h 2.5296 v 0.8433 h 1.3252 v 0.843 h 1.2045 v 0.4819 h 0.4819 v -9.5165 l 4.4679,7.1071 0.5913,2e-4 0.002,-1.565 0.1593,-0.0017 0.0037,-0.557 0.2702,3e-4 0.0073,0.5581 0.1735,-3e-4 -0.0136,1.5656 h 0.3614 v -0.8433 l 0.3047,0.0258 0.0151,1.4638 0.8538,-5e-4 0.0311,0.9204 0.2557,-0.1253 -0.0147,-1.9228 h 1.5658 l 0.0417,1.6866 0.2265,-0.0062 0.0456,-0.9011 0.7705,-0.0062 v 0.6726 h 0.4819 v -0.7228 h 0.3611 l 0.0298,0.3744 0.4521,0.1075 v -1.0843 l 0.7274,0.0046 c -0.1879,-0.2807 -0.574,-0.6804 -0.8133,-1.0026 L 35.635,54.9007 C 35.3944,54.579 35.2274,54.338 34.9652,54.0044 34.6829,53.645 34.4179,53.4559 34.2934,52.9899 c 2.5934,-0.0578 5.3002,-3.3724 5.3002,-6.1436 0,-2.7496 -0.0813,-4.7211 -2.4429,-6.7121 -1.2169,-1.0261 -3.5339,-1.8408 -5.7484,-1.8408 h -9.8778 c -0.2776,0 -0.3615,0.0839 -0.3615,0.3614 z"
       style="fill:#ffffff;fill-rule:evenodd"
       id="path4" />
    <path
       d="m 40.5574,62.988 h 1.4454 v -1.4454 h 1.6866 v 0.8433 l 0.233,-3e-4 0.0079,-0.4816 h 0.7229 v -0.6038 l 1.8068,0.0014 v 1.6864 l 1.4845,-6e-4 0.0085,-0.5899 1.6393,0.0011 0.0039,0.2243 0.3572,0.0037 v -1.2045 h 0.3614 1.2045 v -1.4457 c 1.5111,-0.352 0.5247,-0.3549 2.048,0 v 0.8433 h 0.3611 v -2.6501 h -6.8661 v -4.3367 h 6.3845 v -5.5412 h -6.3845 v -4.4569 h 6.7459 V 38.2934 H 40.5574 Z"
       style="fill:#ffffff;fill-rule:evenodd"
       id="path6" />
    <path
       d="m 55.615,62.988 h 1.4454 v -1.4454 h 1.5662 v 0.8433 H 58.988 V 61.904 h 0.7228 v -0.6038 l 1.8068,0.0014 v 1.6864 h 1.4457 v -0.6021 h 1.6863 v 0.2381 l 0.3615,0.0026 0.0067,-1.2161 0.3394,-0.0012 0.009,-0.6961 0.2517,5e-4 -0.0045,0.6973 0.845,0.0017 0.006,-1.5108 1.8629,0.0108 -0.0026,0.907 h 0.5412 V 58.1696 H 62.12 v -4.3367 h 6.3844 V 48.2917 H 62.12 v -4.4569 h 6.6254 V 38.2934 H 55.615 Z"
       style="fill:#ffffff;fill-rule:evenodd"
       id="path8" />
    <path
       d="m 5.9849,38.2937 v 19.8759 l 0.7833,-0.0017 0.0085,-0.3594 0.1944,-0.0017 -0.0023,0.3461 0.3413,0.0167 v 0.6024 h 0.9624 l 0.0014,2.1682 0.4348,0.0085 0.0029,-0.3909 1.2399,0.017 0.0087,3.2565 h 0.4819 l -0.0034,-0.8473 1.0874,0.004 v 0.8433 h 0.4819 l 0.0059,-2.0492 0.4159,-3e-4 0.0601,-7.9489 h 6.9868 v -5.4207 h -6.9868 v -4.0958 h 7.7096 v -6.0227 z"
       style="fill:#ffffff;fill-rule:evenodd"
       id="path10" />
    <path
       d="M 75.3705,38.2937 V 58.175 l 0.7285,3e-4 0.0154,-0.9181 0.0629,0.0039 -0.0117,0.9139 0.6506,6e-4 V 58.772 H 77.78 v 2.0551 l 1.4454,-0.0074 0.0031,3.0116 0.6284,8e-4 V 62.9894 L 80.912,62.988 v 0.8433 h 0.4816 v -2.0478 c 0.3401,-0.0283 0.4819,0.0028 0.4819,-0.3614 v -7.5892 h 6.9868 v -5.4207 h -6.9868 v -4.0958 h 7.7096 v -6.023 z"
       style="fill:#ffffff;fill-rule:evenodd"
       id="path12" />
    <path
       d="m 94.7649,44.4369 1.3249,-0.9635 -0.1205,1.2747 -1.2053,0.9814 9e-4,0.635 1.3249,-1.0843 v 1.3252 l -1.3255,0.9706 6e-4,0.5953 1.3249,-0.9635 v 1.3249 l -1.3223,0.9467 -0.0026,0.6194 1.3249,-0.9638 v 1.325 l -1.3255,0.9569 6e-4,0.6092 1.3249,-0.9638 v 1.3252 l -0.7047,0.959 -2.1861,0.0045 v 1.2047 l 1.467,1.6648 -0.006,6.1484 0.434,0.4861 0.0034,0.8569 0.7517,-0.0011 v -1.3249 l 0.4632,-0.3821 0.4819,0.4025 c 0.0309,1.379 0.0247,2.7556 0.0593,4.1369 l 0.5615,0.2996 0.1145,-5.7881 0.3629,-0.8291 0.3659,-0.0082 v 4.4572 l 1.5752,-1.7978 0.0111,-6.6549 1.6662,-1.7866 V 53.3609 L 99.8242,53.351 V 39.4981 l -1.2045,-5.5412 c -0.8328,0.2223 -2.26,1.8885 -2.6532,2.647 -1.6024,3.0918 -1.2016,3.7925 -1.2016,7.833 z"
       style="fill:#ffa41a;fill-rule:evenodd"
       id="path14" />
    <path
       d="m 111.7498,49.4964 v -6.1435 c 1.5282,0 2.5954,-0.0623 3.8974,0.6801 1.6372,0.9337 1.9638,5.0692 -1.9763,5.3368 -0.7308,0.0495 -1.2518,0.1266 -1.9211,0.1266 z m -6.6254,-10.8416 v 24.5741 l 0.6004,0.0094 0.002,-1.5753 h 0.482 v -0.6023 h 2.5296 v 0.8433 h 1.3252 v 0.843 h 1.2044 v 0.4819 h 0.4819 v -9.5165 l 4.468,7.1071 0.5913,2e-4 0.002,-1.565 0.1593,-0.0017 0.004,-0.557 0.2701,3e-4 0.007,0.5581 0.1735,-3e-4 -0.0137,1.5656 h 0.3615 v -0.8433 l 0.3047,0.0258 0.015,1.4638 0.8538,-5e-4 0.0312,0.9204 0.2557,-0.1253 -0.0148,-1.9228 h 1.5659 l 0.0416,1.6866 0.2265,-0.0062 0.0457,-0.9011 0.7704,-0.0062 v 0.6726 h 0.482 v -0.7228 h 0.3611 l 0.0297,0.3744 0.4522,0.1075 v -1.0843 l 0.7273,0.0046 c -0.1879,-0.2807 -0.574,-0.6804 -0.8132,-1.0026 l -3.5113,-4.5596 c -0.2407,-0.3217 -0.4076,-0.5627 -0.6698,-0.8963 -0.2824,-0.3594 -0.5474,-0.5485 -0.6719,-1.0145 2.5935,-0.0578 5.3003,-3.3724 5.3003,-6.1436 0,-2.7496 -0.0814,-4.7211 -2.4429,-6.7121 -1.2169,-1.0261 -3.534,-1.8408 -5.7484,-1.8408 h -9.8779 c -0.2775,0 -0.3614,0.0839 -0.3614,0.3614 z"
       style="fill:#ffffff;fill-rule:evenodd"
       id="path16" />
    <path
       d="m 124.6438,63.1132 h 1.4453 v -1.4453 h 1.6867 v 0.8433 l 0.233,-3e-4 0.008,-0.4816 h 0.7229 v -0.6038 l 1.8068,0.0014 v 1.6863 l 1.4844,-5e-4 0.008,-0.5899 1.6393,0.0011 0.004,0.2243 0.3572,0.0036 v -1.2044 h 0.3614 1.2044 v -1.4457 c 1.5112,-0.3521 0.5247,-0.3549 2.0481,0 v 0.8433 h 0.3611 v -2.6501 h -6.8661 v -4.3367 h 6.3845 V 48.417 h -6.3845 v -4.4569 h 6.7459 v -5.5414 h -13.2508 z"
       style="fill:#ffffff;fill-rule:evenodd"
       id="path18" />
  </g>
</svg>
