<svg width="35" height="43" viewBox="0 0 35 43" fill="none" xmlns="http://www.w3.org/2000/svg">
<path d="M30.9425 19.6C30.3962 18.8875 29.7312 18.27 29.1137 17.6525C27.5225 16.2275 25.7175 15.2063 24.1975 13.71C20.6587 10.2425 19.875 4.51875 22.1312 0.125C19.875 0.67125 17.9037 1.90625 16.2175 3.26C10.0662 8.2 7.64374 16.9163 10.5412 24.3975C10.6362 24.635 10.7312 24.8725 10.7312 25.1812C10.7312 25.7038 10.375 26.1788 9.9 26.3687C9.35375 26.6063 8.78375 26.4638 8.3325 26.0838C8.1969 25.9716 8.08403 25.8346 8 25.68C5.31625 22.2838 4.88875 17.415 6.69375 13.52C2.7275 16.75 0.566246 22.2125 0.874996 27.3663C1.0175 28.5538 1.16 29.7413 1.56375 30.9288C1.89625 32.3538 2.5375 33.7788 3.25 35.0375C5.815 39.1463 10.2562 42.0913 15.03 42.685C20.1125 43.3263 25.5512 42.4 29.4462 38.885C33.7925 34.9425 35.3125 28.625 33.08 23.21L32.7712 22.5925C32.2725 21.5 30.9425 19.6 30.9425 19.6ZM23.4375 34.5625C22.7725 35.1325 21.68 35.75 20.825 35.9875C18.165 36.9375 15.505 35.6075 13.9375 34.04C16.7637 33.375 18.45 31.285 18.9487 29.1712C19.3525 27.2712 18.5925 25.7038 18.2837 23.875C17.9987 22.1175 18.0462 20.6212 18.6875 18.9825C19.1387 19.885 19.6137 20.7875 20.1837 21.5C22.0125 23.875 24.8862 24.92 25.5037 28.15C25.5987 28.4825 25.6462 28.815 25.6462 29.1712C25.7175 31.1187 24.8625 33.2562 23.4375 34.5625Z" fill="url(#paint0_linear_225_370)"/>
<defs>
<linearGradient id="paint0_linear_225_370" x1="17.4739" y1="0.125" x2="17.4739" y2="42.8738" gradientUnits="userSpaceOnUse">
<stop stop-color="#FDA700"/>
<stop offset="1" stop-color="#F40000"/>
</linearGradient>
</defs>
</svg>
