<svg width="49" height="49" viewBox="0 0 49 49" fill="none" xmlns="http://www.w3.org/2000/svg">
<path d="M38.5125 21.8875C30.9125 17.375 18.2063 16.9 10.9625 19.1562C9.775 19.5125 8.5875 18.8 8.23125 17.7312C7.875 16.5437 8.5875 15.3562 9.65625 15C18.0875 12.5063 31.9813 12.9813 40.7687 18.2063C41.8375 18.8 42.1938 20.225 41.6 21.2937C41.0063 22.125 39.5812 22.4812 38.5125 21.8875ZM38.275 28.5375C37.6812 29.3687 36.6125 29.725 35.7812 29.1313C29.3687 25.2125 19.6313 24.025 12.15 26.4C11.2 26.6375 10.1312 26.1625 9.89375 25.2125C9.65625 24.2625 10.1312 23.1938 11.0813 22.9563C19.75 20.3438 30.4375 21.65 37.8 26.1625C38.5125 26.5187 38.8687 27.7062 38.275 28.5375ZM35.425 35.0688C34.95 35.7812 34.1188 36.0187 33.4062 35.5438C27.825 32.1 20.8188 31.3875 12.5062 33.2875C11.675 33.525 10.9625 32.9313 10.725 32.2188C10.4875 31.3875 11.0813 30.675 11.7937 30.4375C20.8188 28.4188 28.6563 29.25 34.8312 33.05C35.6625 33.4062 35.7812 34.3563 35.425 35.0688ZM24.5 0.75C21.3811 0.75 18.2928 1.36431 15.4113 2.55786C12.5298 3.75141 9.9116 5.50082 7.70621 7.70621C3.25222 12.1602 0.75 18.2011 0.75 24.5C0.75 30.7989 3.25222 36.8398 7.70621 41.2938C9.9116 43.4992 12.5298 45.2486 15.4113 46.4421C18.2928 47.6357 21.3811 48.25 24.5 48.25C30.7989 48.25 36.8398 45.7478 41.2938 41.2938C45.7478 36.8398 48.25 30.7989 48.25 24.5C48.25 21.3811 47.6357 18.2928 46.4421 15.4113C45.2486 12.5298 43.4992 9.9116 41.2938 7.70621C39.0884 5.50082 36.4702 3.75141 33.5887 2.55786C30.7072 1.36431 27.6189 0.75 24.5 0.75Z" fill="#4ECB71"/>
</svg>
